<svg width="29" height="21" viewBox="0 0 29 21" fill="none" xmlns="http://www.w3.org/2000/svg">
<path d="M28.7102 2.07869L27.2574 0.34659C27.0638 0.115287 26.8408 0 26.5887 0C26.3372 0 26.1143 0.115287 25.9208 0.34659L14.5002 13.963L3.08006 0.346955C2.88637 0.115652 2.66347 0.000363866 2.41167 0.000363866C2.15977 0.000363866 1.93687 0.115652 1.74328 0.346955L0.290683 2.07918C0.0966908 2.31 0 2.57577 0 2.87612C0 3.17623 0.0969961 3.442 0.290683 3.67282L13.8318 19.8186C14.0254 20.0496 14.2484 20.165 14.5002 20.165C14.752 20.165 14.9745 20.0496 15.168 19.8186L28.7102 3.67282C28.9038 3.44188 29 3.17611 29 2.87612C29 2.57577 28.9038 2.31 28.7102 2.07869Z" fill="white"/>
</svg>
