<svg width="64" height="64" viewBox="0 0 64 64" fill="none" xmlns="http://www.w3.org/2000/svg">
<rect width="64" height="64"/>
<g clip-path="url(#clip0_0_1)">
<path d="M54 45.18C56.2054 45.1735 58.3494 45.9058 60.09 47.26C63.7225 40.5598 64.8443 32.783 63.2535 25.3294C61.6627 17.8757 57.4638 11.2345 51.4124 6.60108C45.361 1.96763 37.8545 -0.353822 30.2439 0.0544982C22.6333 0.462819 15.4183 3.5741 9.89745 8.82841C4.37656 14.0827 0.912301 21.135 0.128137 28.7161C-0.656027 36.2972 1.29139 43.9093 5.61993 50.1824C9.94846 56.4555 16.3739 60.9777 23.7398 62.9352C31.1057 64.8926 38.9284 64.1567 45.8 60.86C44.7656 59.3612 44.1602 57.6084 44.0489 55.7908C43.9377 53.9731 44.3249 52.1595 45.1689 50.5458C46.0128 48.9321 47.2813 47.5794 48.8376 46.6338C50.394 45.6882 52.1789 45.1855 54 45.18ZM42.38 37.31L42.13 36.76C41.8375 36.1625 41.3838 35.6587 40.8201 35.3053C40.2565 34.9519 39.6053 34.763 38.94 34.76H24.76C24.0945 34.7619 23.4428 34.9503 22.879 35.3038C22.3151 35.6573 21.8616 36.1618 21.57 36.76L21.32 37.32C20.5673 38.8909 19.2233 40.0999 17.5818 40.6827C15.9403 41.2655 14.1348 41.1746 12.56 40.43L12 40.15C11.2203 39.7793 10.5214 39.2586 9.94305 38.6177C9.36473 37.9767 8.9184 37.2281 8.62957 36.4145C8.34075 35.601 8.21508 34.7385 8.25977 33.8764C8.30446 33.0142 8.51862 32.1693 8.89002 31.39L14.4 19.83C14.955 18.6815 15.8228 17.7128 16.9036 17.0353C17.9844 16.3578 19.2344 15.999 20.51 16H43.2C44.4811 16.0031 45.7352 16.368 46.818 17.0527C47.9007 17.7374 48.768 18.714 49.32 19.87L54.83 31.42C55.5746 32.9948 55.6655 34.8002 55.0827 36.4418C54.4999 38.0833 53.2909 39.4273 51.72 40.18L51.14 40.45C50.3587 40.819 49.5123 41.0306 48.6491 41.0725C47.786 41.1144 46.9231 40.9859 46.1097 40.6943C45.2962 40.4028 44.5482 39.9538 43.9082 39.3731C43.2683 38.7924 42.749 38.0914 42.38 37.31ZM54 48.93C52.7635 48.93 51.5547 49.2968 50.5267 49.984C49.4986 50.6712 48.6976 51.6479 48.2248 52.7906C47.7521 53.9332 47.6289 55.1904 47.8708 56.403C48.1128 57.6157 48.7091 58.7293 49.5841 59.603C50.4592 60.4766 51.5738 61.0711 52.7868 61.3111C53.9999 61.5512 55.2569 61.426 56.3987 60.9514C57.5406 60.4768 58.516 59.6742 59.2016 58.645C59.8871 57.6159 60.252 56.4066 60.25 55.17C60.25 54.3497 60.0883 53.5375 59.7741 52.7798C59.4599 52.022 58.9993 51.3337 58.4188 50.7541C57.8383 50.1746 57.1493 49.7151 56.391 49.4021C55.6328 49.0891 54.8203 48.9287 54 48.93ZM57.37 54L54.69 58C54.6026 58.1239 54.4894 58.2273 54.3582 58.3033C54.227 58.3792 54.0809 58.4259 53.93 58.44H53.83C53.6967 58.4421 53.5644 58.4175 53.4407 58.3677C53.3171 58.3179 53.2046 58.2439 53.11 58.15L51.11 56.21C51.0122 56.1148 50.9341 56.0013 50.8801 55.8759C50.8262 55.7505 50.7974 55.6157 50.7956 55.4792C50.7937 55.3427 50.8188 55.2071 50.8693 55.0803C50.9198 54.9535 50.9948 54.8378 51.09 54.74C51.1852 54.6422 51.2988 54.5641 51.4242 54.5101C51.5496 54.4561 51.6844 54.4274 51.8209 54.4256C51.9574 54.4237 52.0929 54.4488 52.2197 54.4993C52.3466 54.5498 52.4622 54.6248 52.56 54.72L53.68 55.8L55.68 52.88C55.8285 52.6559 56.06 52.5 56.3235 52.4465C56.587 52.3931 56.8609 52.4465 57.085 52.595C57.3091 52.7435 57.4651 52.975 57.5185 53.2385C57.5719 53.502 57.5185 53.7759 57.37 54ZM43.88 21.56C43.88 21.869 43.7883 22.171 43.6164 22.4277C43.4445 22.6845 43.2003 22.8844 42.9147 23.0022C42.629 23.12 42.3149 23.1503 42.012 23.0893C41.7091 23.0283 41.4312 22.8787 41.2134 22.6595C40.9956 22.4403 40.8478 22.1614 40.7888 21.8582C40.7297 21.5549 40.762 21.2409 40.8817 20.9561C41.0013 20.6712 41.2028 20.4282 41.4606 20.258C41.7185 20.0878 42.0211 19.998 42.33 20C42.5344 20 42.7368 20.0404 42.9255 20.1189C43.1142 20.1975 43.2855 20.3125 43.4296 20.4575C43.5736 20.6025 43.6876 20.7746 43.7649 20.9638C43.8422 21.153 43.8813 21.3556 43.88 21.56ZM43.88 27.96C43.882 28.2694 43.7919 28.5724 43.6213 28.8304C43.4506 29.0885 43.2071 29.29 42.9216 29.4093C42.6362 29.5286 42.3217 29.5604 42.0182 29.5005C41.7146 29.4406 41.4357 29.2918 41.217 29.0731C40.9982 28.8543 40.8494 28.5754 40.7895 28.2719C40.7297 27.9683 40.7614 27.6538 40.8807 27.3684C41 27.0829 41.2015 26.8394 41.4596 26.6687C41.7177 26.4981 42.0206 26.408 42.33 26.41C42.5366 26.4113 42.7408 26.4536 42.9309 26.5345C43.121 26.6153 43.2932 26.7331 43.4374 26.881C43.5815 27.029 43.6949 27.204 43.7709 27.3961C43.8469 27.5882 43.884 27.7935 43.88 28V27.96ZM47.08 24.76C47.082 25.0694 46.9919 25.3724 46.8213 25.6304C46.6506 25.8885 46.4071 26.09 46.1216 26.2093C45.8362 26.3286 45.5217 26.3604 45.2182 26.3005C44.9146 26.2406 44.6357 26.0918 44.417 25.8731C44.1982 25.6543 44.0494 25.3754 43.9895 25.0719C43.9297 24.7683 43.9614 24.4538 44.0807 24.1684C44.2 23.8829 44.4015 23.6394 44.6596 23.4687C44.9177 23.2981 45.2206 23.208 45.53 23.21C45.9403 23.2126 46.333 23.3768 46.6231 23.6669C46.9132 23.957 47.0774 24.3497 47.08 24.76ZM40.68 24.76C40.682 25.0694 40.5919 25.3724 40.4213 25.6304C40.2506 25.8885 40.0071 26.09 39.7216 26.2093C39.4362 26.3286 39.1217 26.3604 38.8181 26.3005C38.5146 26.2406 38.2357 26.0918 38.017 25.8731C37.7982 25.6543 37.6494 25.3754 37.5895 25.0719C37.5297 24.7683 37.5614 24.4538 37.6807 24.1684C37.8 23.8829 38.0015 23.6394 38.2596 23.4687C38.5176 23.2981 38.8206 23.208 39.13 23.21C39.5403 23.2126 39.933 23.3768 40.2231 23.6669C40.5132 23.957 40.6774 24.3497 40.68 24.76ZM25 23.92V25.6C25 25.6933 24.9817 25.7856 24.946 25.8717C24.9103 25.9579 24.858 26.0361 24.7921 26.1021C24.7261 26.168 24.6479 26.2203 24.5617 26.256C24.4756 26.2916 24.3833 26.31 24.29 26.31H22.48C22.2917 26.31 22.1111 26.3848 21.978 26.518C21.8448 26.6511 21.77 26.8317 21.77 27.02V28.8C21.77 28.9883 21.6952 29.1689 21.5621 29.3021C21.4289 29.4352 21.2483 29.51 21.06 29.51H19.38C19.1917 29.51 19.0111 29.4352 18.878 29.3021C18.7448 29.1689 18.67 28.9883 18.67 28.8V27C18.67 26.9059 18.6513 26.8128 18.615 26.726C18.5787 26.6392 18.5255 26.5605 18.4585 26.4944C18.3915 26.4283 18.3121 26.3762 18.2248 26.3412C18.1375 26.3061 18.0441 26.2887 17.95 26.29H16.18C16.0868 26.29 15.9945 26.2716 15.9083 26.236C15.8222 26.2003 15.7439 26.148 15.678 26.0821C15.612 26.0161 15.5597 25.9379 15.5241 25.8517C15.4884 25.7656 15.47 25.6732 15.47 25.58V23.92C15.47 23.7317 15.5448 23.5511 15.678 23.418C15.8111 23.2848 15.9917 23.21 16.18 23.21H18C18.0941 23.2113 18.1875 23.194 18.2748 23.1589C18.3621 23.1238 18.4415 23.0717 18.5085 23.0056C18.5755 22.9396 18.6287 22.8608 18.665 22.774C18.7013 22.6872 18.72 22.5941 18.72 22.5V20.72C18.72 20.5317 18.7948 20.3511 18.928 20.218C19.0611 20.0848 19.2417 20.01 19.43 20.01H21.11C21.2983 20.01 21.4789 20.0848 21.6121 20.218C21.7452 20.3511 21.82 20.5317 21.82 20.72V22.5C21.82 22.6883 21.8948 22.8689 22.028 23.0021C22.1611 23.1352 22.3417 23.21 22.53 23.21H24.31C24.4948 23.2152 24.6703 23.2923 24.7992 23.4249C24.928 23.5575 25.0001 23.7351 25 23.92Z" fill="white"/>
</g>
<defs>
<clipPath id="clip0_0_1">
<rect width="64" height="64" fill="white"/>
</clipPath>
</defs>
</svg>
