<svg width="80" height="77" viewBox="0 0 80 77" fill="none" xmlns="http://www.w3.org/2000/svg">
<path d="M61.0925 75.6287L79.0378 12.9124L46.5898 31.0666L46.5892 31.0678C46.6212 35.4445 44.2732 39.7281 39.9992 42.1191C35.7253 44.5101 30.6141 44.4 26.5544 42.2764L9.45215 51.8452C19.5577 62.1362 36.2789 64.7752 49.5775 57.3349C49.7006 57.2653 49.82 57.1897 49.9425 57.1201L50.0708 58.1157L61.0925 75.6287Z" fill="#FF7676"/>
<path d="M39.9992 42.1191C35.7253 44.5101 30.6141 44.4 26.5544 42.2764L11.8727 50.4915C21.7955 56.3768 34.7944 56.958 45.5512 50.9391C56.3098 44.919 61.9971 33.8864 61.2702 22.8545L46.5892 31.0678C46.6213 35.4445 44.2732 39.7281 39.9992 42.1191Z" fill="#FF1A1A"/>
<path d="M19.7226 31.4259C19.6912 27.0479 22.0379 22.7656 26.3119 20.3746C30.5859 17.9836 35.6996 18.0924 39.7574 20.2161L56.8609 10.6455C46.756 0.355665 30.0341 -2.28332 16.7362 5.15822C3.43897 12.5985 -2.11807 27.6994 2.62036 40.9923L19.7226 31.4259Z" fill="#FF7676"/>
<path d="M26.3125 20.374C30.5865 17.983 35.7002 18.0918 39.758 20.2155L54.4403 12.0003C44.5157 6.11147 31.5187 5.53262 20.7619 11.5515C10.0026 17.5717 4.31402 28.6042 5.04217 39.6374L19.7232 31.4259C19.6918 27.0473 22.0386 22.765 26.3125 20.374Z" fill="#FF1A1A"/>
<path d="M2.62036 41.8996C2.50745 41.8996 2.3939 41.8808 2.28548 41.8427C2.01282 41.7471 1.80111 41.5409 1.70873 41.2808C-3.24591 27.383 2.868 11.863 16.2448 4.37794C21.3637 1.51395 27.2049 0 33.1379 0C42.4031 0 51.3071 3.65575 57.5666 10.0291C57.7642 10.2305 57.8547 10.5045 57.813 10.7761C57.7713 11.0471 57.6019 11.286 57.3517 11.4257L40.2488 20.9957C39.9543 21.1603 39.5906 21.1651 39.2903 21.0084C37.4157 20.0274 35.2942 19.5084 33.1546 19.5084C30.9233 19.5084 28.728 20.0776 26.804 21.1542C22.9996 23.2827 20.6554 27.2155 20.6856 31.4198C20.6881 31.7422 20.5085 32.041 20.2147 32.2061L3.11179 41.7725C2.96102 41.8566 2.79166 41.8996 2.62036 41.8996ZM33.1379 1.81396C27.5501 1.81396 22.0482 3.23961 17.227 5.93787C4.96841 12.7975 -0.8151 26.8175 3.17337 39.6277L18.7674 30.9051C18.9245 26.2586 21.5908 21.9605 25.8211 19.5937C28.0422 18.3507 30.5782 17.6938 33.1546 17.6938C35.434 17.6938 37.6961 18.2049 39.7311 19.1751L55.3257 10.4489C49.4857 4.94832 41.4677 1.81396 33.1379 1.81396Z" fill="white"/>
<path d="M39.2024 27.8627C41.1861 31.0122 40.0852 35.0786 36.744 36.9464C33.4061 38.8154 29.0911 37.7793 27.108 34.6286C25.127 31.4815 26.2279 27.4115 29.5677 25.5437C32.907 23.6747 37.2213 24.7144 39.2024 27.8627Z" fill="#FF7676"/>
<path d="M27.108 34.628C25.127 31.4809 26.2279 27.4108 29.5677 25.543C32.907 23.674 37.2213 24.7138 39.2024 27.8621" fill="#FF1A1A"/>
<path d="M33.1617 38.7833C30.3504 38.7833 27.7143 37.3686 26.2805 35.0913C25.1911 33.3608 24.8819 31.3327 25.4105 29.3821C25.9385 27.4302 27.2409 25.7904 29.0769 24.7634C30.3119 24.0721 31.7195 23.7073 33.1488 23.7073C35.9607 23.7073 38.5974 25.1221 40.0307 27.3994C41.1206 29.1305 41.4311 31.1585 40.9025 33.1092C40.3752 35.0599 39.0722 36.6996 37.2348 37.7261C35.9998 38.418 34.591 38.7833 33.1617 38.7833ZM33.1482 25.5219C32.0646 25.5219 30.9964 25.7995 30.0592 26.3239C28.6644 27.1036 27.6765 28.349 27.2749 29.8309C26.8739 31.3122 27.1087 32.8515 27.9356 34.1653C29.0237 35.8946 31.026 36.9688 33.1617 36.9688C34.2452 36.9688 35.314 36.6912 36.2526 36.1661C37.648 35.3865 38.6366 34.1411 39.0375 32.661C39.4379 31.1803 39.2031 29.641 38.3748 28.326C37.2861 26.5961 35.2832 25.5219 33.1482 25.5219Z" fill="white"/>
<path d="M13.0788 43.3869C12.7503 43.3869 12.4302 43.2284 12.2505 42.9429C11.9792 42.5117 12.1299 41.9552 12.5867 41.6994L21.1308 36.9186C21.5882 36.6633 22.1784 36.8049 22.4498 37.2355C22.7212 37.6662 22.5704 38.2233 22.1136 38.4791L13.5696 43.2599C13.4149 43.3464 13.2462 43.3869 13.0788 43.3869Z" fill="white"/>
<path d="M8.15494 46.1372C7.9041 46.1372 7.65454 46.0404 7.47426 45.8711C7.29527 45.7023 7.19263 45.4725 7.19263 45.2299C7.19263 44.994 7.29527 44.7581 7.47426 44.5888C7.83417 44.2555 8.48149 44.2555 8.83434 44.5888C9.01397 44.7575 9.11661 44.994 9.11661 45.2299C9.11661 45.4719 9.01397 45.7017 8.84011 45.8711C8.6547 46.0404 8.41156 46.1372 8.15494 46.1372Z" fill="white"/>
<path d="M3.67057 48.6473C3.42036 48.6473 3.17016 48.5506 2.98989 48.3812C2.8109 48.2118 2.70825 47.9759 2.70825 47.74C2.70825 47.5035 2.8109 47.2683 2.98989 47.0983C3.3498 46.7596 3.99134 46.7596 4.34996 47.0983C4.52959 47.2677 4.63224 47.5035 4.63224 47.74C4.63224 47.9759 4.52959 48.2112 4.34996 48.3812C4.17097 48.5506 3.92077 48.6473 3.67057 48.6473Z" fill="white"/>
<path d="M44.6896 25.6997C44.3611 25.6997 44.041 25.5407 43.8613 25.2558C43.59 24.8245 43.7407 24.268 44.1975 24.0122L52.7416 19.2338C53.1983 18.9792 53.7892 19.1201 54.0606 19.5508C54.332 19.982 54.1812 20.5385 53.7244 20.7944L45.1803 25.5727C45.0264 25.6586 44.857 25.6997 44.6896 25.6997Z" fill="white"/>
<path d="M58.1568 18.1626C57.9009 18.1626 57.65 18.0719 57.471 17.9025C57.2972 17.7332 57.1945 17.4973 57.1945 17.2608C57.1945 17.0194 57.2972 16.7829 57.471 16.6142C57.8303 16.2809 58.4776 16.2809 58.8375 16.6142C59.0165 16.7829 59.1191 17.0194 59.1191 17.2608C59.1191 17.4973 59.0165 17.7326 58.8375 17.9025C58.6572 18.0713 58.407 18.1626 58.1568 18.1626Z" fill="white"/>
<path d="M62.6393 15.6579C62.3108 15.6579 61.9907 15.4994 61.8111 15.2139C61.5397 14.7827 61.6905 14.2262 62.1472 13.9704L75.1308 6.70484C75.5876 6.44959 76.1784 6.59113 76.4498 7.02178C76.7212 7.45244 76.5704 8.00951 76.1136 8.26537L63.1301 15.5309C62.9755 15.6174 62.8067 15.6579 62.6393 15.6579Z" fill="white"/>
<path d="M61.0925 76.536C60.7564 76.536 60.4394 76.3697 60.2649 76.092L49.2432 58.5797C49.2407 58.5754 49.2375 58.5706 49.2349 58.567C44.3187 61.1388 38.7886 62.4931 33.1758 62.4931C23.9106 62.4931 15.006 58.8373 8.74582 52.4628C8.54823 52.2613 8.45777 51.9867 8.49947 51.7158C8.54117 51.4448 8.71054 51.2059 8.96074 51.0661L26.063 41.4973C26.3568 41.3334 26.7219 41.328 27.0208 41.4846C28.898 42.4663 31.0202 42.9853 33.1597 42.9853C35.3898 42.9847 37.5845 42.4167 39.5078 41.3401C43.3134 39.211 45.6576 35.2782 45.6269 31.0751C45.6256 30.9311 45.6615 30.7884 45.7301 30.6595C45.8129 30.5053 45.9406 30.3746 46.0984 30.2869L78.5464 12.1328C78.8832 11.9441 79.3079 11.9671 79.6197 12.1909C79.9314 12.4141 80.0687 12.7933 79.9667 13.1496L62.0208 75.8658C61.9201 76.2179 61.6058 76.4791 61.2221 76.5287C61.1791 76.533 61.1355 76.536 61.0925 76.536ZM51.0017 57.8169L60.757 73.3176L77.4917 14.8329L47.5444 31.5874C47.3885 36.2333 44.7216 40.532 40.49 42.8994C38.2696 44.1418 35.7349 44.798 33.1597 44.7986C30.8797 44.7986 28.6176 44.2875 26.5807 43.3167L10.9874 52.0412C16.8273 57.5429 24.8466 60.6773 33.1758 60.6773C38.7636 60.6773 44.2649 59.2523 49.0861 56.5546L49.4466 56.3423C49.7263 56.1838 50.0708 56.1693 50.3653 56.3048C50.6578 56.4397 50.8593 56.7052 50.8984 57.0107L51.0017 57.8169Z" fill="white"/>
</svg>
