<svg width="74" height="71" viewBox="0 0 74 71" fill="none" xmlns="http://www.w3.org/2000/svg">
<path d="M37 70.0312C29.7686 70.0312 22.6997 68.006 16.687 64.2117C10.6743 60.4173 5.988 55.0243 3.22067 48.7145C0.453342 42.4048 -0.270718 35.4617 1.14005 28.7633C2.55083 22.0649 6.03307 15.912 11.1464 11.0827C16.2598 6.25344 22.7746 2.96465 29.867 1.63226C36.9595 0.299863 44.311 0.983697 50.9919 3.59729C57.6728 6.21087 63.3831 10.6368 67.4006 16.3155C71.4182 21.9941 73.5625 28.6704 73.5625 35.5C73.5625 44.6583 69.7104 53.4414 62.8536 59.9173C55.9968 66.3931 46.697 70.0312 37 70.0312ZM37 6.28125C30.8812 6.28125 24.8997 7.9949 19.8121 11.2055C14.7244 14.4161 10.7591 18.9794 8.41749 24.3185C6.07591 29.6575 5.46324 35.5324 6.65697 41.2003C7.8507 46.8682 10.7972 52.0745 15.1239 56.1608C19.4506 60.2471 24.9631 63.0299 30.9644 64.1573C36.9657 65.2847 43.1862 64.7061 48.8393 62.4946C54.4924 60.2831 59.3242 56.5381 62.7236 51.7331C66.1231 46.9281 67.9375 41.2789 67.9375 35.5C67.9375 27.7507 64.678 20.3188 58.8761 14.8392C53.0742 9.35965 45.2052 6.28125 37 6.28125Z" fill="white"/>
<path d="M37 38.1563C34.2187 38.1563 31.4999 37.3773 29.1873 35.918C26.8747 34.4586 25.0723 32.3844 24.008 29.9575C22.9436 27.5307 22.6651 24.8603 23.2077 22.284C23.7503 19.7077 25.0896 17.3412 27.0563 15.4837C29.023 13.6263 31.5287 12.3614 34.2566 11.849C36.9844 11.3365 39.8119 11.5995 42.3815 12.6047C44.9511 13.61 47.1473 15.3122 48.6926 17.4963C50.2378 19.6804 51.0625 22.2482 51.0625 24.875C51.0625 28.3974 49.5809 31.7755 46.9437 34.2663C44.3065 36.757 40.7296 38.1563 37 38.1563ZM37 16.9063C35.3312 16.9063 33.6999 17.3736 32.3124 18.2492C30.9248 19.1249 29.8434 20.3694 29.2048 21.8255C28.5662 23.2816 28.3991 24.8838 28.7246 26.4296C29.0502 27.9754 29.8538 29.3953 31.0338 30.5098C32.2138 31.6242 33.7172 32.3832 35.3539 32.6906C36.9906 32.9981 38.6871 32.8403 40.2289 32.2372C41.7707 31.634 43.0884 30.6127 44.0155 29.3022C44.9427 27.9918 45.4375 26.4511 45.4375 24.875C45.4375 22.7616 44.5486 20.7347 42.9662 19.2402C41.3839 17.7458 39.2378 16.9063 37 16.9063Z" fill="white"/>
<path d="M63.8594 56.75C63.469 56.7525 63.0824 56.6782 62.7241 56.5319C62.3658 56.3855 62.0436 56.1703 61.7782 55.9C58.7929 52.8247 55.1643 50.368 51.1219 48.6854C47.0795 47.0028 42.7114 46.131 38.2938 46.125H35.7063C27.4719 46.1082 19.5537 49.1186 13.6282 54.5188C13.0807 54.9454 12.3826 55.1608 11.674 55.1217C10.9654 55.0826 10.2987 54.7918 9.80754 54.3078C9.31642 53.8238 9.03723 53.1823 9.02599 52.512C9.01474 51.8417 9.27227 51.1922 9.74692 50.6938C16.7103 44.3372 26.0219 40.7928 35.7063 40.8125H38.2938C43.4863 40.8236 48.6203 41.8487 53.3732 43.8234C58.1261 45.7982 62.3953 48.6799 65.9126 52.2875C66.2842 52.6659 66.531 53.1384 66.6229 53.6472C66.7147 54.156 66.6477 54.679 66.4299 55.1524C66.2121 55.6257 65.853 56.0289 65.3965 56.3126C64.94 56.5964 64.4059 56.7483 63.8594 56.75Z" fill="white"/>
</svg>
