<svg width="48" height="47" viewBox="0 0 48 47" fill="none" xmlns="http://www.w3.org/2000/svg">
<g clip-path="url(#clip0_23_145)">
<path d="M4.8 37.6H43.2C45.8496 37.6 48 39.7032 48 42.3C48 44.8967 45.852 47 43.2 47H4.8C2.148 47 0 44.8967 0 42.3C0 39.7032 2.148 37.6 4.8 37.6ZM43.2 28.2H4.8C2.148 28.2 0 26.0967 0 23.5C0 20.9033 2.148 18.8 4.8 18.8H43.2C45.8496 18.8 48 20.9033 48 23.5C48 26.0967 45.852 28.2 43.2 28.2ZM43.2 9.4H4.8C2.148 9.4 0 7.29675 0 4.7C0 2.10325 2.148 -1.75834e-06 4.8 -1.75834e-06H43.2C45.8496 -1.75834e-06 48 2.10325 48 4.7C48 7.29675 45.852 9.4 43.2 9.4Z" fill="white"/>
</g>
<defs>
<clipPath id="clip0_23_145">
<rect width="48" height="47" fill="white" transform="matrix(1 0 0 -1 0 47)"/>
</clipPath>
</defs>
</svg>
